<svg xmlns="http://www.w3.org/2000/svg" width="1920" height="1145" viewBox="0 0 1920 1145">
  <metadata><?xpacket begin="﻿" id="W5M0MpCehiHzreSzNTczkc9d"?>
<x:xmpmeta xmlns:x="adobe:ns:meta/" x:xmptk="Adobe XMP Core 5.6-c138 79.159824, 2016/09/14-01:09:01        ">
   <rdf:RDF xmlns:rdf="http://www.w3.org/1999/02/22-rdf-syntax-ns#">
      <rdf:Description rdf:about=""/>
   </rdf:RDF>
</x:xmpmeta>
                                                                                                    
                                                                                                    
                                                                                                    
                                                                                                    
                                                                                                    
                                                                                                    
                                                                                                    
                                                                                                    
                                                                                                    
                                                                                                    
                                                                                                    
                                                                                                    
                                                                                                    
                                                                                                    
                                                                                                    
                                                                                                    
                                                                                                    
                                                                                                    
                                                                                                    
                                                                                                    
                           
<?xpacket end="w"?></metadata>
<defs>
    <style>
      .cls-1 {
        fill-rule: evenodd;
      }
    </style>
  </defs>
  <path id="Color_Fill_1" data-name="Color Fill 1" class="cls-1" d="M0-2H1920V1143h-40c0.49-37.27-1.77-69.94-7-102q-1.005-13.995-2-28-24.99-26.5-50-53l-134-2v-3c8.87-24.688,10.23-49.922,11-85q0.495-10.5,1-21-12-34.5-24-69Q1656,672.01,1637,564c-9.31-43.067-9.55-92.374-39-115-86.39,2.425-77.9,50.577-113,99-12.3,16.967-48.98,29.71-72,35-12.42,2.855-28.23-1.042-37-3-21.44-4.785-47.33-9.479-62-22q-10.005-12.5-20-25c-15.93-19.846-65.52-57.381-92-65-38.39-11.044-60.39,15.69-84,18q-13.005-4-26-8c-1.52-26.244-17.12-38.391-33-50-7.88.614-22.5,4.5-26,10-10.97,17.34,2.55,51.572-7,67q-13,10.5-26,21c-27.715,19.615-55.311,38.477-85,56-41.241,24.341-88.4,38.426-136,58L672,691l-90,29c-49.993,12.763-109.926,10.761-141,42l-14,28c-34.689,59.524-48.359,158.784,39,173q0.5,3.5,1,7L0,969V-2Z"/>
</svg>
